<svg width="22" height="22" viewBox="0 0 22 22" fill="none" xmlns="http://www.w3.org/2000/svg">
<path opacity="0.4" d="M8.47916 8.29578C10.1108 8.89161 11.8892 8.89161 13.5208 8.29578" stroke="#212B36" stroke-width="1.5" stroke-linecap="round" stroke-linejoin="round"/>
<path d="M15.4183 1.83337H6.58167C4.62917 1.83337 3.04333 3.42837 3.04333 5.37171V18.2875C3.04333 19.9375 4.22584 20.6342 5.67417 19.8367L10.1475 17.3525C10.6242 17.0867 11.3942 17.0867 11.8617 17.3525L16.335 19.8367C17.7833 20.6434 18.9658 19.9467 18.9658 18.2875V5.37171C18.9567 3.42837 17.3708 1.83337 15.4183 1.83337Z" stroke="#212B36" stroke-width="1.5" stroke-linecap="round" stroke-linejoin="round"/>
<path d="M15.4183 1.83337H6.58167C4.62917 1.83337 3.04333 3.42837 3.04333 5.37171V18.2875C3.04333 19.9375 4.22584 20.6342 5.67417 19.8367L10.1475 17.3525C10.6242 17.0867 11.3942 17.0867 11.8617 17.3525L16.335 19.8367C17.7833 20.6434 18.9658 19.9467 18.9658 18.2875V5.37171C18.9567 3.42837 17.3708 1.83337 15.4183 1.83337Z" stroke="#212B36" stroke-width="1.5" stroke-linecap="round" stroke-linejoin="round"/>
</svg>
