<svg width="22" height="22" viewBox="0 0 22 22" fill="none" xmlns="http://www.w3.org/2000/svg">
<path d="M15.5833 19.25H6.41667C2.75 19.25 1.83333 18.3333 1.83333 14.6667V7.33333C1.83333 3.66667 2.75 2.75 6.41667 2.75H15.5833C19.25 2.75 20.1667 3.66667 20.1667 7.33333V14.6667C20.1667 18.3333 19.25 19.25 15.5833 19.25Z" stroke="#212B36" stroke-width="1.5" stroke-linecap="round" stroke-linejoin="round"/>
<g opacity="0.4">
<path d="M12.8333 7.33337H17.4167" stroke="#212B36" stroke-width="1.5" stroke-linecap="round" stroke-linejoin="round"/>
<path d="M13.75 11H17.4167" stroke="#212B36" stroke-width="1.5" stroke-linecap="round" stroke-linejoin="round"/>
<path d="M15.5833 14.6666H17.4167" stroke="#212B36" stroke-width="1.5" stroke-linecap="round" stroke-linejoin="round"/>
<path d="M7.79206 10.3491C8.70839 10.3491 9.45123 9.60626 9.45123 8.68993C9.45123 7.7736 8.70839 7.03076 7.79206 7.03076C6.87573 7.03076 6.13289 7.7736 6.13289 8.68993C6.13289 9.60626 6.87573 10.3491 7.79206 10.3491Z" stroke="#212B36" stroke-width="1.5" stroke-linecap="round" stroke-linejoin="round"/>
<path d="M11 14.969C10.8717 13.6398 9.8175 12.5948 8.48833 12.4757C8.03 12.4298 7.5625 12.4298 7.095 12.4757C5.76583 12.604 4.71167 13.6398 4.58333 14.969" stroke="#212B36" stroke-width="1.5" stroke-linecap="round" stroke-linejoin="round"/>
</g>
</svg>
