<svg width="22" height="22" viewBox="0 0 22 22" fill="none" xmlns="http://www.w3.org/2000/svg">
<path opacity="0.4" d="M16.6283 19.8184C15.8217 20.0568 14.8683 20.1668 13.75 20.1668H8.25C7.13167 20.1668 6.17833 20.0568 5.37167 19.8184C5.57333 17.4351 8.02083 15.5559 11 15.5559C13.9792 15.5559 16.4267 17.4351 16.6283 19.8184Z" stroke="#212B36" stroke-width="1.5" stroke-linecap="round" stroke-linejoin="round"/>
<path d="M20.1667 8.24992V13.7499C20.1667 17.2149 19.1217 19.1124 16.6283 19.8182C15.8217 20.0566 14.8683 20.1666 13.75 20.1666H8.25C7.13167 20.1666 6.17833 20.0566 5.37167 19.8182C2.87833 19.1124 1.83333 17.2149 1.83333 13.7499V8.24992C1.83333 3.66659 3.66667 1.83325 8.25 1.83325H13.75C18.3333 1.83325 20.1667 3.66659 20.1667 8.24992Z" stroke="#212B36" stroke-width="1.5" stroke-linecap="round" stroke-linejoin="round"/>
<path opacity="0.4" d="M14.2817 9.69843C14.2817 11.5134 12.815 12.9892 11 12.9892C9.185 12.9892 7.71833 11.5134 7.71833 9.69843C7.71833 7.88343 9.185 6.41675 11 6.41675C12.815 6.41675 14.2817 7.88343 14.2817 9.69843Z" stroke="#212B36" stroke-width="1.5" stroke-linecap="round" stroke-linejoin="round"/>
</svg>
